<svg width="29" height="26" viewBox="0 0 29 26" fill="none" xmlns="http://www.w3.org/2000/svg">
<path d="M3.14844 0C5.79048 0.233314 9.68307 1.51592 12.2549 2.95898C12.7187 3.22139 13 3.70288 13 4.25684V24.5342C13 25.5692 11.9878 26.2842 11.0742 25.8906C8.46021 24.7536 5.21399 23.7621 2.90918 23.4414L2.47363 23.3828C1.11039 23.2079 0 21.9101 0 20.4961V3.16309C0.000157132 1.41389 1.36342 0 3.0498 0H3.14844ZM25.9502 0C27.6366 0 28.9998 1.41389 29 3.16309V20.4961C29 21.9101 27.8896 23.2079 26.5264 23.3828L26.0908 23.4414C23.786 23.7621 20.5398 24.7536 17.9258 25.8906C17.0123 26.2842 16 25.5692 16 24.5342V4.25684C16 3.71746 16.295 3.22139 16.7588 2.95898C19.3307 1.51579 23.2241 0.233244 25.8662 0H25.9502ZM4.23047 11.75C3.65435 11.75 3.17595 12.2452 3.17578 12.8428C3.17578 13.455 3.65425 13.9365 4.23047 13.9365H8.44629C9.0225 13.9365 9.50098 13.455 9.50098 12.8428C9.50081 12.2452 9.02241 11.75 8.44629 11.75H4.23047ZM4.23047 7.37598C3.65425 7.37598 3.17578 7.87204 3.17578 8.46973C3.17579 9.08199 3.65426 9.56348 4.23047 9.56348H7.39258C7.96872 9.56339 8.44628 9.08193 8.44629 8.46973C8.44629 7.87209 7.96872 7.37607 7.39258 7.37598H4.23047Z" fill="#1C1C19"/>
</svg>
