<svg width="28" height="26" viewBox="0 0 28 26" fill="none" xmlns="http://www.w3.org/2000/svg">
<path fill-rule="evenodd" clip-rule="evenodd" d="M0.0487921 15.6043V24.9167C0.0487921 25.5147 0.517529 26 1.09508 26H3.34669C3.59448 26.0001 3.83423 25.9091 4.02328 25.7432C4.21233 25.5774 4.33839 25.3474 4.37903 25.0943L4.93147 21.6667H23.0671L23.6182 25.0943C23.6588 25.3474 23.7849 25.5774 23.9739 25.7432C24.163 25.9091 24.4027 26.0001 24.6505 26H26.9035C27.181 26 27.4471 25.8859 27.6434 25.6827C27.8396 25.4795 27.9498 25.204 27.9498 24.9167V15.6043C27.9499 13.9063 27.4645 12.2462 26.5548 10.8333L25.4666 9.14333C25.3696 8.99287 25.2864 8.83328 25.2183 8.66667H26.605C26.7994 8.66666 26.99 8.61057 27.1553 8.50469C27.3206 8.39881 27.4542 8.24732 27.5411 8.06722L27.8898 7.345C27.9694 7.17995 28.007 6.99658 27.9989 6.81229C27.9909 6.628 27.9376 6.44888 27.8439 6.29192C27.7503 6.13495 27.6196 6.00534 27.464 5.91536C27.3085 5.82539 27.1333 5.77803 26.9551 5.77778H24.6017L24.1692 3.54467C24.0377 2.86456 23.7197 2.23807 23.2534 1.74011C22.787 1.24215 22.192 0.893787 21.5396 0.736667C19.5 0.245556 16.9861 0 13.9993 0C11.0111 0 8.49862 0.245556 6.45905 0.736667C5.80631 0.893542 5.21103 1.2418 4.74443 1.73978C4.27783 2.23776 3.95966 2.86437 3.82799 3.54467L3.39552 5.77778H1.04486C0.866687 5.77803 0.691529 5.82539 0.535986 5.91536C0.380443 6.00534 0.249668 6.13495 0.156055 6.29192C0.0624415 6.44888 0.00909225 6.628 0.00106309 6.81229C-0.00696607 6.99658 0.0305907 7.17995 0.110174 7.345L0.458937 8.06722C0.545668 8.2471 0.679032 8.39844 0.844105 8.50431C1.00918 8.61018 1.19945 8.66639 1.39362 8.66667H2.7817C2.71353 8.83326 2.63039 8.99285 2.53338 9.14333L1.44384 10.8333C0.53427 12.246 0.0487921 13.9057 0.0487921 15.6043ZM22.3152 8.67244C22.4113 9.17203 22.5708 9.65627 22.7895 10.1126H5.20909C5.42811 9.65756 5.58714 9.17367 5.6834 8.67244L6.56508 4.11233C6.5911 3.97599 6.65456 3.85033 6.74785 3.7504C6.84114 3.65048 6.96029 3.58055 7.09101 3.549C8.90179 3.11567 11.2092 2.88889 13.9993 2.88889C16.7894 2.88889 19.0968 3.11422 20.9076 3.55044C21.0384 3.58164 21.1577 3.65125 21.2512 3.75092C21.3448 3.85058 21.4086 3.97607 21.4349 4.11233L22.3152 8.67244ZM4.93147 17.3333C5.48646 17.3333 6.01871 17.1051 6.41115 16.6987C6.80358 16.2924 7.02405 15.7413 7.02405 15.1667C7.02405 14.592 6.80358 14.0409 6.41115 13.6346C6.01871 13.2283 5.48646 13 4.93147 13C4.37648 13 3.84423 13.2283 3.4518 13.6346C3.05936 14.0409 2.83889 14.592 2.83889 15.1667C2.83889 15.7413 3.05936 16.2924 3.4518 16.6987C3.84423 17.1051 4.37648 17.3333 4.93147 17.3333ZM25.1597 15.1667C25.1597 15.7413 24.9392 16.2924 24.5468 16.6987C24.1544 17.1051 23.6221 17.3333 23.0671 17.3333C22.5121 17.3333 21.9799 17.1051 21.5875 16.6987C21.195 16.2924 20.9746 15.7413 20.9746 15.1667C20.9746 14.592 21.195 14.0409 21.5875 13.6346C21.9799 13.2283 22.5121 13 23.0671 13C23.6221 13 24.1544 13.2283 24.5468 13.6346C24.9392 14.0409 25.1597 14.592 25.1597 15.1667Z" fill="black"/>
</svg>
