<svg width="26" height="28" viewBox="0 0 26 28" fill="none" xmlns="http://www.w3.org/2000/svg">
<path d="M23.0674 8.00201C23.6183 8.03934 24.0352 8.51654 23.998 9.06744L23.3242 19.002C23.1966 20.8859 23.0966 22.3985 22.8574 23.5801C22.6275 24.7157 22.2486 25.665 21.5039 26.4219L21.3496 26.5704C20.5043 27.3485 19.4697 27.6865 18.2324 27.8458C17.0221 28.0016 15.4855 28.0001 13.5654 28.0001H12.4346C10.5144 28.0001 8.97794 28.0016 7.76758 27.8458C6.6074 27.6964 5.62534 27.3902 4.81055 26.711L4.65039 26.5704C3.80305 25.7904 3.38783 24.7914 3.14258 23.5801C2.90336 22.3985 2.80342 20.8859 2.67578 19.002L2.00195 9.06744C1.96479 8.51654 2.38169 8.03933 2.93262 8.00201C3.48352 7.96481 3.96069 8.38176 3.99805 8.93267L4.6709 18.8672C4.80226 20.8061 4.89585 22.1615 5.10254 23.1827C5.30325 24.1741 5.58649 24.7135 6.00488 25.0987C6.42538 25.4858 6.99746 25.7303 8.02344 25.8624C9.07643 25.9979 10.4611 26.0001 12.4346 26.0001H13.5654C15.539 26.0001 16.9236 25.9979 17.9766 25.8624C19.0025 25.7303 19.5746 25.4858 19.9951 25.0987C20.4135 24.7135 20.6968 24.1741 20.8975 23.1827C21.1041 22.1615 21.1977 20.8061 21.3291 18.8672L22.002 8.93267C22.0393 8.38176 22.5165 7.96481 23.0674 8.00201ZM10 12.0001C10.5523 12.0001 11 12.4478 11 13.0001V20.0001C11 20.5523 10.5523 21.0001 10 21.0001C9.44771 21.0001 9 20.5523 9 20.0001V13.0001C9.00003 12.4478 9.44773 12.0001 10 12.0001ZM16 12.0001C16.5523 12.0001 17 12.4478 17 13.0001V20.0001C17 20.5523 16.5523 21.0001 16 21.0001C15.4477 21.0001 15 20.5523 15 20.0001V13.0001C15 12.4478 15.4477 12.0001 16 12.0001ZM15.3926 5.43944e-05C15.7415 5.29947e-05 16.0199 -0.00291571 16.2803 0.0352106C17.2434 0.176257 18.113 0.732602 18.5957 1.58209L18.6875 1.76177C18.7738 1.94694 18.8458 2.14967 18.9268 2.37212L19.0684 2.7608V2.76177C19.0949 2.83494 19.103 2.85688 19.1094 2.8731C19.3548 3.49493 20.0275 3.97953 20.8643 3.99908C20.8867 3.9996 20.9136 4.00005 21 4.00005H25C25.5523 4.00005 26 4.44779 26 5.00005C26 5.55234 25.5523 6.00005 25 6.00005H1C0.447715 6.00005 0 5.55234 0 5.00005C2.98922e-05 4.44779 0.447734 4.00005 1 4.00005H5C5.08636 4.00005 5.11328 3.9996 5.13574 3.99908C5.97246 3.97956 6.64523 3.49495 6.89062 2.8731C6.89694 2.85708 6.9041 2.83654 6.93164 2.7608L7.07324 2.37212C7.18124 2.07514 7.2729 1.81342 7.4043 1.58209C7.887 0.732585 8.75666 0.176257 9.71973 0.0352106C9.98011 -0.00291087 10.2585 5.29932e-05 10.6074 5.43944e-05H15.3926ZM10.6074 2.00005C10.1943 2.00006 10.0912 2.00279 10.0098 2.0147C9.6091 2.07335 9.29882 2.29713 9.14355 2.57037C9.11515 2.62038 9.086 2.69034 8.95312 3.05572L8.81152 3.44439C8.7879 3.50937 8.76968 3.56006 8.75098 3.60748C8.69724 3.74364 8.63305 3.87365 8.56445 4.00005H17.4346C17.4116 3.95766 17.3876 3.91563 17.3662 3.87212L17.249 3.60748C17.2305 3.56051 17.2125 3.51071 17.1885 3.44439L17.0469 3.05572C16.9804 2.87284 16.9405 2.76373 16.9131 2.69439L16.8564 2.57037C16.7012 2.29712 16.3909 2.07335 15.9902 2.0147C15.9089 2.00279 15.8057 2.00006 15.3926 2.00005H10.6074Z" fill="#CF2020"/>
</svg>
