<svg width="31" height="26" viewBox="0 0 31 26" fill="none" xmlns="http://www.w3.org/2000/svg">
<path fill-rule="evenodd" clip-rule="evenodd" d="M0 4.58824C0 2.05423 2.0638 0 4.60961 0H8.83651C10.4945 0 12.0822 0.666747 13.2391 1.84888L14.9393 3.58623C15.2286 3.88175 15.6255 4.04844 16.04 4.04844H22.1854C25.4317 4.04844 28.0894 6.55345 28.3159 9.72613C30.4046 10.5307 31.5976 12.937 30.6954 15.1825L27.8946 22.154C26.9613 24.4769 24.7012 26 22.1879 26H6.14614C4.43324 26 2.88166 25.3006 1.7688 24.1768C0.676613 23.0738 0 21.5552 0 19.8824V4.58824ZM25.1729 9.44637C24.8478 8.10454 23.6338 7.10727 22.1854 7.10727H16.04C14.7965 7.10727 13.6057 6.60721 12.738 5.72061L11.0378 3.98326C10.4593 3.3922 9.6655 3.05882 8.83651 3.05882H4.60961C3.76101 3.05882 3.07307 3.74357 3.07307 4.58824V17.5073L4.66819 12.6176C5.28504 10.7267 7.05512 9.44637 9.05245 9.44637H25.1729ZM4.65622 22.5587L7.59104 13.5622C7.79664 12.9319 8.38667 12.5052 9.05245 12.5052H26.7935C27.5923 12.5052 28.1387 13.3083 27.842 14.0467L25.0412 21.0181C24.5746 22.1795 23.4445 22.9412 22.1879 22.9412H6.14614C5.60505 22.9412 5.09755 22.8028 4.65622 22.5587Z" fill="#1C1C19"/>
</svg>
