<svg width="193" height="41" viewBox="0 0 193 41" fill="none" xmlns="http://www.w3.org/2000/svg">
<path d="M66.4492 29.5H62.0195V26.7578H66.2852C67.4961 26.7578 68.5078 26.5391 69.3203 26.1016C70.1406 25.6562 70.7539 24.9883 71.1602 24.0977C71.5742 23.207 71.7812 22.0938 71.7812 20.7578C71.7812 19.4219 71.5781 18.3125 71.1719 17.4297C70.7656 16.5469 70.1602 15.8867 69.3555 15.4492C68.5508 15.0039 67.5547 14.7812 66.3672 14.7812H61.9258V12.0391H66.5547C68.2891 12.0391 69.7773 12.3867 71.0195 13.082C72.2695 13.7773 73.2305 14.7773 73.9023 16.082C74.5742 17.3867 74.9102 18.9453 74.9102 20.7578C74.9102 22.5703 74.5742 24.1328 73.9023 25.4453C73.2305 26.75 72.2617 27.7539 70.9961 28.457C69.7383 29.1523 68.2227 29.5 66.4492 29.5ZM63.6836 12.0391V29.5H60.5195V12.0391H63.6836ZM76.8672 29.5V16.3984H79.8555V18.6016H79.9961C80.2305 17.8359 80.6406 17.25 81.2266 16.8438C81.8125 16.4297 82.4805 16.2227 83.2305 16.2227C83.3945 16.2227 83.582 16.2305 83.793 16.2461C84.0117 16.2617 84.1914 16.2812 84.332 16.3047V19.1406C84.1992 19.0938 83.9922 19.0547 83.7109 19.0234C83.4297 18.9922 83.1602 18.9766 82.9023 18.9766C82.332 18.9766 81.8242 19.0977 81.3789 19.3398C80.9336 19.582 80.582 19.9141 80.3242 20.3359C80.0742 20.7578 79.9492 21.25 79.9492 21.8125V29.5H76.8672ZM85.4922 29.5V16.3984H88.5742V29.5H85.4922ZM87.0391 14.5586C86.5469 14.5586 86.125 14.3945 85.7734 14.0664C85.4219 13.7383 85.2461 13.3438 85.2461 12.8828C85.2461 12.4141 85.4219 12.0156 85.7734 11.6875C86.125 11.3594 86.5469 11.1953 87.0391 11.1953C87.5234 11.1953 87.9414 11.3594 88.293 11.6875C88.6445 12.0156 88.8203 12.4102 88.8203 12.8711C88.8203 13.3398 88.6445 13.7383 88.293 14.0664C87.9414 14.3945 87.5234 14.5586 87.0391 14.5586ZM102.555 16.3984L97.8906 29.5H94.4688L89.8164 16.3984H93.1094L96.1445 26.1367H96.2852L99.2969 16.3984H102.555ZM109.152 29.7578C107.84 29.7578 106.707 29.4844 105.754 28.9375C104.801 28.3828 104.066 27.6016 103.551 26.5938C103.043 25.5859 102.789 24.3984 102.789 23.0312C102.789 21.6797 103.043 20.4961 103.551 19.4805C104.059 18.457 104.773 17.6602 105.695 17.0898C106.617 16.5195 107.703 16.2344 108.953 16.2344C109.758 16.2344 110.52 16.3633 111.238 16.6211C111.965 16.8789 112.605 17.2773 113.16 17.8164C113.723 18.3555 114.164 19.043 114.484 19.8789C114.805 20.707 114.965 21.6953 114.965 22.8438V23.8047H104.23V21.7305H113.43L111.988 22.3398C111.988 21.5977 111.875 20.9531 111.648 20.4062C111.422 19.8516 111.086 19.418 110.641 19.1055C110.195 18.793 109.641 18.6367 108.977 18.6367C108.312 18.6367 107.746 18.793 107.277 19.1055C106.809 19.418 106.453 19.8398 106.211 20.3711C105.969 20.8945 105.848 21.4805 105.848 22.1289V23.5703C105.848 24.3672 105.984 25.0508 106.258 25.6211C106.539 26.1836 106.93 26.6133 107.43 26.9102C107.938 27.207 108.527 27.3555 109.199 27.3555C109.637 27.3555 110.035 27.293 110.395 27.168C110.762 27.043 111.074 26.8555 111.332 26.6055C111.598 26.3477 111.801 26.0312 111.941 25.6562L114.824 25.9961C114.637 26.7539 114.289 27.418 113.781 27.9883C113.281 28.5508 112.637 28.9883 111.848 29.3008C111.066 29.6055 110.168 29.7578 109.152 29.7578ZM116.77 29.5V12.0391H119.934V19.4336H128.02V12.0391H131.184V29.5H128.02V22.0938H119.934V29.5H116.77ZM141.93 24.0039V16.3984H145.012V29.5H142.023V27.168H141.883C141.586 27.9023 141.102 28.5039 140.43 28.9727C139.758 29.4414 138.93 29.6719 137.945 29.6641C137.086 29.6641 136.328 29.4766 135.672 29.1016C135.023 28.7188 134.512 28.1602 134.137 27.4258C133.77 26.6836 133.586 25.7891 133.586 24.7422V16.3984H136.668V24.2734C136.668 25.0938 136.895 25.75 137.348 26.2422C137.809 26.7344 138.41 26.9766 139.152 26.9688C139.605 26.9688 140.043 26.8594 140.465 26.6406C140.895 26.4219 141.246 26.0938 141.52 25.6562C141.793 25.2188 141.93 24.668 141.93 24.0039ZM154.246 29.7344C153.504 29.7344 152.883 29.6094 152.383 29.3594C151.891 29.1016 151.492 28.7969 151.188 28.4453C150.891 28.0859 150.664 27.7461 150.508 27.4258H150.32V29.5H147.297V12.0391H150.379V18.5664H150.508C150.664 18.2539 150.887 17.918 151.176 17.5586C151.465 17.1914 151.855 16.8789 152.348 16.6211C152.848 16.3633 153.484 16.2344 154.258 16.2344C155.266 16.2344 156.176 16.4922 156.988 17.0078C157.801 17.5234 158.445 18.2812 158.922 19.2812C159.406 20.2812 159.648 21.5117 159.648 22.9727C159.648 24.4102 159.414 25.6328 158.945 26.6406C158.477 27.6484 157.832 28.418 157.012 28.9492C156.199 29.4727 155.277 29.7344 154.246 29.7344ZM153.402 27.2031C154.082 27.2031 154.648 27.0195 155.102 26.6523C155.562 26.2852 155.91 25.7812 156.145 25.1406C156.379 24.5 156.496 23.7734 156.496 22.9609C156.496 22.1484 156.379 21.4258 156.145 20.793C155.91 20.1602 155.566 19.6641 155.113 19.3047C154.66 18.9453 154.09 18.7656 153.402 18.7656C152.738 18.7656 152.176 18.9375 151.715 19.2812C151.262 19.625 150.914 20.1133 150.672 20.7461C150.438 21.3711 150.32 22.1094 150.32 22.9609C150.32 23.8047 150.438 24.5469 150.672 25.1875C150.914 25.8203 151.266 26.3164 151.727 26.6758C152.188 27.0273 152.746 27.2031 153.402 27.2031Z" fill="#1C1C19"/>
<path d="M14.0971 0.5H1.25391L21.4107 21.3696L1.25391 40.5H14.0971L34.2539 21.3696L14.0971 0.5Z" fill="#EF0707" stroke="#EF0707"/>
<path d="M34.0971 0.5H21.2539L41.4107 21.3696L21.2539 40.5H34.0971L54.2539 21.3696L34.0971 0.5Z" fill="#EF0707" stroke="#EF0707"/>
</svg>
