<svg width="393" height="96" viewBox="0 0 393 96" fill="none" xmlns="http://www.w3.org/2000/svg">
<path d="M174.627 54.5H165.768V49.0156H174.299C176.721 49.0156 178.744 48.5781 180.369 47.7031C182.01 46.8125 183.236 45.4766 184.049 43.6953C184.877 41.9141 185.291 39.6875 185.291 37.0156C185.291 34.3438 184.885 32.125 184.072 30.3594C183.26 28.5938 182.049 27.2734 180.439 26.3984C178.83 25.5078 176.838 25.0625 174.463 25.0625H165.58V19.5781H174.838C178.307 19.5781 181.283 20.2734 183.768 21.6641C186.268 23.0547 188.189 25.0547 189.533 27.6641C190.877 30.2734 191.549 33.3906 191.549 37.0156C191.549 40.6406 190.877 43.7656 189.533 46.3906C188.189 49 186.252 51.0078 183.721 52.4141C181.205 53.8047 178.174 54.5 174.627 54.5ZM169.096 19.5781V54.5H162.768V19.5781H169.096ZM195.721 54.5V19.5781H208.822C211.51 19.5781 213.76 20.0469 215.572 20.9844C217.4 21.9219 218.783 23.2344 219.721 24.9219C220.658 26.5938 221.127 28.5391 221.127 30.7578C221.127 32.9922 220.65 34.9297 219.697 36.5703C218.76 38.2109 217.369 39.4766 215.525 40.3672C213.682 41.2578 211.416 41.7031 208.729 41.7031H199.424V36.4766H207.861C209.439 36.4766 210.729 36.2578 211.729 35.8203C212.744 35.3828 213.486 34.7422 213.955 33.8984C214.439 33.0391 214.682 31.9922 214.682 30.7578C214.682 29.5234 214.439 28.4688 213.955 27.5938C213.471 26.7031 212.729 26.0312 211.729 25.5781C210.729 25.1094 209.432 24.875 207.838 24.875H202.049V54.5H195.721ZM215.338 54.5L206.877 38.6562H213.768L222.416 54.5H215.338ZM231.486 19.5781V54.5H225.158V19.5781H231.486ZM241.236 19.5781L250.307 47.0469H250.682L259.752 19.5781H266.689L254.385 54.5H246.604L234.275 19.5781H241.236ZM269.502 54.5V19.5781H292.236V24.875H275.83V34.25H291.018V39.4766H275.83V49.2031H292.33V54.5H269.502ZM296.877 54.5V19.5781H303.205V34.3672H319.377V19.5781H325.705V54.5H319.377V39.6875H303.205V54.5H296.877ZM352.799 19.5781H359.104V42.3828C359.104 44.8828 358.518 47.0859 357.346 48.9922C356.174 50.8828 354.525 52.3672 352.4 53.4453C350.275 54.5078 347.791 55.0391 344.947 55.0391C342.104 55.0391 339.619 54.5078 337.494 53.4453C335.369 52.3672 333.713 50.8828 332.525 48.9922C331.354 47.0859 330.768 44.8828 330.768 42.3828V19.5781H337.096V41.8672C337.096 43.3359 337.416 44.6328 338.057 45.7578C338.697 46.8828 339.604 47.7734 340.775 48.4297C341.963 49.0703 343.354 49.3906 344.947 49.3906C346.541 49.3906 347.924 49.0703 349.096 48.4297C350.268 47.7734 351.174 46.8828 351.814 45.7578C352.471 44.6328 352.799 43.3359 352.799 41.8672V19.5781ZM364.189 54.5V19.5781H377.596C380.111 19.5781 382.205 19.9766 383.877 20.7734C385.549 21.5547 386.799 22.6328 387.627 24.0078C388.455 25.3672 388.869 26.9062 388.869 28.625C388.869 30.0469 388.596 31.2656 388.049 32.2812C387.518 33.2812 386.791 34.0938 385.869 34.7188C384.947 35.3438 383.916 35.7969 382.775 36.0781V36.4297C384.025 36.4766 385.213 36.8516 386.338 37.5547C387.479 38.2422 388.408 39.2109 389.127 40.4609C389.861 41.7109 390.229 43.2188 390.229 44.9844C390.229 46.7969 389.791 48.4219 388.916 49.8594C388.057 51.2812 386.744 52.4141 384.979 53.2578C383.229 54.0859 381.018 54.5 378.346 54.5H364.189ZM370.518 49.2266H377.314C379.611 49.2266 381.268 48.7812 382.283 47.8906C383.314 47 383.83 45.8672 383.83 44.4922C383.83 43.4453 383.572 42.5078 383.057 41.6797C382.541 40.8516 381.807 40.1953 380.854 39.7109C379.916 39.2266 378.807 38.9844 377.525 38.9844H370.518V49.2266ZM370.518 34.4375H376.799C377.877 34.4375 378.854 34.2344 379.729 33.8281C380.604 33.4219 381.291 32.8516 381.791 32.1172C382.307 31.3672 382.564 30.4844 382.564 29.4688C382.564 28.125 382.088 27.0156 381.135 26.1406C380.182 25.25 378.783 24.8047 376.939 24.8047H370.518V34.4375Z" fill="#1C1C19"/>
<path d="M164.492 80.7148V78.9102H165.502C166.082 78.9102 166.526 78.749 166.834 78.4268C167.149 78.0973 167.393 77.7357 167.564 77.3418L167.822 76.7402L162.279 64.4941H164.385L168.789 74.4414L172.807 64.4941H174.869L169.348 77.9004C169.133 78.4017 168.886 78.8672 168.606 79.2969C168.327 79.7194 167.948 80.0632 167.468 80.3281C166.988 80.5859 166.34 80.7148 165.523 80.7148H164.492ZM175.894 80.5V68.4902H185.326V80.5H183.478V70.209H177.721V80.5H175.894ZM188.349 84.9902V68.4902H190.111V70.4023H190.326C190.462 70.1947 190.652 69.9297 190.895 69.6074C191.139 69.278 191.49 68.9844 191.948 68.7266C192.406 68.4688 193.026 68.3398 193.806 68.3398C194.816 68.3398 195.704 68.5941 196.47 69.1025C197.237 69.6038 197.835 70.32 198.264 71.251C198.701 72.1748 198.92 73.2669 198.92 74.5273C198.92 75.7949 198.705 76.8978 198.275 77.8359C197.845 78.7669 197.247 79.4867 196.481 79.9951C195.715 80.5036 194.83 80.7578 193.828 80.7578C193.062 80.7578 192.446 80.6289 191.98 80.3711C191.515 80.1061 191.157 79.8089 190.906 79.4795C190.655 79.1429 190.462 78.8672 190.326 78.6523H190.175V84.9902H188.349ZM193.591 79.1035C194.358 79.1035 194.999 78.8994 195.514 78.4912C196.03 78.0758 196.417 77.5208 196.674 76.8262C196.939 76.1315 197.072 75.3581 197.072 74.5059C197.072 73.6608 196.943 72.8981 196.685 72.2178C196.427 71.5374 196.041 70.9967 195.525 70.5957C195.017 70.1947 194.372 69.9941 193.591 69.9941C192.84 69.9941 192.209 70.1839 191.701 70.5635C191.192 70.9359 190.806 71.4622 190.541 72.1426C190.283 72.8158 190.154 73.6035 190.154 74.5059C190.154 75.4082 190.286 76.2067 190.551 76.9014C190.816 77.5889 191.203 78.1296 191.712 78.5234C192.227 78.9102 192.854 79.1035 193.591 79.1035ZM204.886 80.7793C204.127 80.7793 203.436 80.6361 202.813 80.3496C202.19 80.056 201.696 79.6335 201.331 79.082C200.965 78.5306 200.783 77.8646 200.783 77.084C200.783 76.3965 200.919 75.8415 201.191 75.4189C201.463 74.9893 201.825 74.6527 202.276 74.4092C202.734 74.1585 203.236 73.9723 203.78 73.8506C204.331 73.7288 204.886 73.6322 205.445 73.5605C206.175 73.4674 206.766 73.3958 207.217 73.3457C207.676 73.2956 208.009 73.2096 208.216 73.0879C208.431 72.9661 208.539 72.7585 208.539 72.4648V72.4004C208.539 71.6341 208.327 71.0397 207.905 70.6172C207.489 70.1875 206.856 69.9727 206.003 69.9727C205.13 69.9727 204.442 70.166 203.941 70.5527C203.44 70.9323 203.089 71.3405 202.888 71.7773L201.126 71.1543C201.442 70.4238 201.861 69.8545 202.383 69.4463C202.913 69.0381 203.486 68.7516 204.102 68.5869C204.725 68.4222 205.337 68.3398 205.939 68.3398C206.326 68.3398 206.77 68.3864 207.271 68.4795C207.772 68.5654 208.259 68.7516 208.732 69.0381C209.212 69.3174 209.606 69.7435 209.914 70.3164C210.229 70.8822 210.386 71.6413 210.386 72.5938V80.5H208.539V78.8672H208.453C208.331 79.125 208.123 79.4043 207.83 79.7051C207.536 79.9987 207.146 80.2529 206.659 80.4678C206.179 80.6755 205.588 80.7793 204.886 80.7793ZM205.166 79.125C205.896 79.125 206.512 78.9818 207.013 78.6953C207.515 78.4089 207.894 78.04 208.152 77.5889C208.41 77.1305 208.539 76.6543 208.539 76.1602V74.4629C208.46 74.556 208.288 74.6419 208.023 74.7207C207.765 74.7923 207.464 74.8568 207.121 74.9141C206.784 74.9714 206.455 75.0215 206.132 75.0645C205.81 75.1003 205.552 75.1289 205.359 75.1504C204.879 75.2148 204.431 75.3187 204.016 75.4619C203.601 75.598 203.264 75.8021 203.006 76.0742C202.756 76.3464 202.63 76.7188 202.63 77.1914C202.63 77.8288 202.867 78.3122 203.339 78.6416C203.819 78.9639 204.428 79.125 205.166 79.125ZM213.41 80.5V68.4902H218.308C219.597 68.4974 220.621 68.7946 221.38 69.3818C222.147 69.9619 222.526 70.7318 222.519 71.6914C222.526 72.4219 222.311 72.984 221.874 73.3779C221.445 73.7718 220.893 74.0404 220.22 74.1836C220.657 74.248 221.083 74.4056 221.498 74.6562C221.921 74.9069 222.272 75.2507 222.551 75.6875C222.83 76.1172 222.97 76.6471 222.97 77.2773C222.97 77.8932 222.813 78.4447 222.497 78.9316C222.182 79.4186 221.735 79.8018 221.155 80.0811C220.575 80.3604 219.876 80.5 219.06 80.5H213.41ZM215.15 78.8027H219.06C219.69 78.8099 220.184 78.6631 220.542 78.3623C220.908 78.0615 221.087 77.6497 221.079 77.127C221.087 76.5039 220.908 76.0169 220.542 75.666C220.184 75.3079 219.69 75.1289 219.06 75.1289H215.15V78.8027ZM215.15 73.5391H218.308C219.046 73.5319 219.626 73.3779 220.048 73.0771C220.471 72.7692 220.678 72.3503 220.671 71.8203C220.678 71.3118 220.471 70.9144 220.048 70.6279C219.626 70.3343 219.046 70.1875 218.308 70.1875H215.15V73.5391ZM224.318 80.5V78.7812H224.747C225.234 78.7812 225.614 78.6488 225.886 78.3838C226.158 78.1117 226.359 77.6175 226.487 76.9014C226.624 76.1852 226.717 75.1576 226.767 73.8184L226.982 68.4902H234.974V80.5H233.126V70.209H228.722L228.529 74.5059C228.486 75.487 228.4 76.3535 228.271 77.1055C228.142 77.8503 227.941 78.4769 227.669 78.9854C227.404 79.4867 227.05 79.8662 226.606 80.124C226.162 80.3747 225.607 80.5 224.941 80.5H224.318ZM245.216 80.5V70.1875H242.015C241.299 70.1875 240.733 70.3558 240.317 70.6924C239.909 71.0218 239.709 71.4766 239.716 72.0566C239.709 72.6296 239.891 73.0807 240.264 73.4102C240.636 73.7396 241.148 73.9043 241.8 73.9043H245.667V75.623H241.8C240.983 75.623 240.282 75.4798 239.694 75.1934C239.107 74.9069 238.656 74.4987 238.341 73.9688C238.026 73.4316 237.868 72.7943 237.868 72.0566C237.868 71.319 238.033 70.6852 238.362 70.1553C238.699 69.6253 239.175 69.2171 239.791 68.9307C240.414 68.637 241.155 68.4902 242.015 68.4902H246.956V80.5H245.216ZM237.202 80.5L240.618 74.5273H242.616L239.2 80.5H237.202ZM251.806 77.7715L257.585 68.4902H259.712V80.5H257.886V71.2188L252.128 80.5H249.979V68.4902H251.806V77.7715ZM254.835 67.0615C253.875 67.0615 253.095 66.793 252.493 66.2559C251.899 65.7116 251.601 65.0062 251.601 64.1396H253.32C253.32 64.6051 253.46 64.9847 253.739 65.2783C254.018 65.5719 254.384 65.7188 254.835 65.7188C255.286 65.7188 255.651 65.5719 255.931 65.2783C256.21 64.9847 256.349 64.6051 256.349 64.1396H258.068C258.068 65.0062 257.767 65.7116 257.166 66.2559C256.572 66.793 255.794 67.0615 254.835 67.0615ZM267.262 83.9375V78.7812H268.251C268.494 78.5234 268.705 78.2477 268.884 77.9541C269.071 77.6605 269.228 77.3096 269.357 76.9014C269.486 76.486 269.597 75.9847 269.69 75.3975C269.79 74.8102 269.876 74.0977 269.948 73.2598L270.356 68.4902H277.983V78.7812H279.831V83.9375H277.983V80.5H269.11V83.9375H267.262ZM270.356 78.7812H276.135V70.209H272.075L271.753 73.2598C271.631 74.513 271.473 75.6087 271.28 76.5469C271.086 77.485 270.779 78.2298 270.356 78.7812ZM281.909 80.5V68.4902H286.807C288.096 68.4974 289.12 68.7946 289.879 69.3818C290.646 69.9619 291.025 70.7318 291.018 71.6914C291.025 72.4219 290.81 72.984 290.373 73.3779C289.944 73.7718 289.392 74.0404 288.719 74.1836C289.156 74.248 289.582 74.4056 289.997 74.6562C290.42 74.9069 290.771 75.2507 291.05 75.6875C291.329 76.1172 291.469 76.6471 291.469 77.2773C291.469 77.8932 291.312 78.4447 290.996 78.9316C290.681 79.4186 290.234 79.8018 289.654 80.0811C289.074 80.3604 288.375 80.5 287.559 80.5H281.909ZM283.649 78.8027H287.559C288.189 78.8099 288.683 78.6631 289.041 78.3623C289.407 78.0615 289.586 77.6497 289.579 77.127C289.586 76.5039 289.407 76.0169 289.041 75.666C288.683 75.3079 288.189 75.1289 287.559 75.1289H283.649V78.8027ZM283.649 73.5391H286.807C287.545 73.5319 288.125 73.3779 288.547 73.0771C288.97 72.7692 289.177 72.3503 289.17 71.8203C289.177 71.3118 288.97 70.9144 288.547 70.6279C288.125 70.3343 287.545 70.1875 286.807 70.1875H283.649V73.5391ZM295.717 77.7715L301.496 68.4902H303.623V80.5H301.797V71.2188L296.039 80.5H293.891V68.4902H295.717V77.7715ZM305.895 80.5L310.772 74.3984L305.959 68.4902H308.129L312.147 73.625H313.135V68.4902H314.982V73.625H315.949L319.945 68.4902H322.137L317.346 74.3984L322.201 80.5H319.988L315.928 75.3438H314.982V80.5H313.135V75.3438H312.19L308.107 80.5H305.895ZM329.006 80.7578C327.853 80.7578 326.854 80.5 326.009 79.9844C325.171 79.4688 324.526 78.749 324.075 77.8252C323.624 76.8942 323.398 75.8164 323.398 74.5918C323.398 73.36 323.62 72.2751 324.064 71.3369C324.508 70.3988 325.131 69.6647 325.934 69.1348C326.743 68.6048 327.688 68.3398 328.769 68.3398C329.393 68.3398 330.012 68.4437 330.628 68.6514C331.244 68.859 331.802 69.1956 332.304 69.6611C332.812 70.1266 333.217 70.7425 333.518 71.5088C333.818 72.2751 333.969 73.2168 333.969 74.334V75.1289H324.709V73.5391H332.97L332.121 74.1406C332.121 73.3385 331.996 72.626 331.745 72.0029C331.494 71.3799 331.118 70.8893 330.617 70.5312C330.123 70.1732 329.507 69.9941 328.769 69.9941C328.032 69.9941 327.398 70.1768 326.868 70.542C326.345 70.9001 325.944 71.3691 325.665 71.9492C325.386 72.5293 325.246 73.1523 325.246 73.8184V74.8711C325.246 75.7806 325.404 76.5505 325.719 77.1807C326.034 77.8109 326.474 78.2907 327.04 78.6201C327.606 78.9424 328.261 79.1035 329.006 79.1035C329.486 79.1035 329.922 79.0355 330.316 78.8994C330.71 78.7562 331.05 78.5449 331.337 78.2656C331.623 77.9792 331.842 77.6283 331.992 77.2129L333.775 77.7285C333.589 78.3301 333.274 78.86 332.83 79.3184C332.393 79.7695 331.849 80.124 331.197 80.3818C330.545 80.6325 329.815 80.7578 329.006 80.7578ZM344.383 73.6465V75.3652H337.765V73.6465H344.383ZM338.195 68.4902V80.5H336.369V68.4902H338.195ZM345.801 68.4902V80.5H343.953V68.4902H345.801ZM350.65 77.7715L356.429 68.4902H358.556V80.5H356.73V71.2188L350.972 80.5H348.824V68.4902H350.65V77.7715ZM366.607 80.7578C365.454 80.7578 364.455 80.5 363.61 79.9844C362.772 79.4688 362.127 78.749 361.676 77.8252C361.225 76.8942 360.999 75.8164 360.999 74.5918C360.999 73.36 361.221 72.2751 361.665 71.3369C362.109 70.3988 362.733 69.6647 363.535 69.1348C364.344 68.6048 365.289 68.3398 366.371 68.3398C366.994 68.3398 367.613 68.4437 368.229 68.6514C368.845 68.859 369.403 69.1956 369.905 69.6611C370.413 70.1266 370.818 70.7425 371.119 71.5088C371.419 72.2751 371.57 73.2168 371.57 74.334V75.1289H362.31V73.5391H370.571L369.722 74.1406C369.722 73.3385 369.597 72.626 369.346 72.0029C369.095 71.3799 368.72 70.8893 368.218 70.5312C367.724 70.1732 367.108 69.9941 366.371 69.9941C365.633 69.9941 364.999 70.1768 364.469 70.542C363.946 70.9001 363.545 71.3691 363.266 71.9492C362.987 72.5293 362.847 73.1523 362.847 73.8184V74.8711C362.847 75.7806 363.005 76.5505 363.32 77.1807C363.635 77.8109 364.075 78.2907 364.641 78.6201C365.207 78.9424 365.862 79.1035 366.607 79.1035C367.087 79.1035 367.524 79.0355 367.917 78.8994C368.311 78.7562 368.651 78.5449 368.938 78.2656C369.224 77.9792 369.443 77.6283 369.593 77.2129L371.376 77.7285C371.19 78.3301 370.875 78.86 370.431 79.3184C369.994 79.7695 369.45 80.124 368.798 80.3818C368.147 80.6325 367.416 80.7578 366.607 80.7578ZM380.523 78.0078L384.712 68.4902H386.452L381.275 80.5H379.771L374.679 68.4902H376.398L380.523 78.0078ZM375.796 68.4902V80.5H373.97V68.4902H375.796ZM385.249 80.5V68.4902H387.075V80.5H385.249Z" fill="#1C1C19"/>
<path d="M31.2039 0.5H1.23633L48.2688 50.0652L1.23633 95.5H31.2039L78.2363 50.0652L31.2039 0.5Z" fill="#EF0707" stroke="#EF0707"/>
<path d="M93.2039 0.5H63.2363L110.269 50.0652L63.2363 95.5H93.2039L140.236 50.0652L93.2039 0.5Z" fill="#EF0707" stroke="#EF0707"/>
</svg>
