<svg width="50" height="50" viewBox="0 0 50 50" fill="none" xmlns="http://www.w3.org/2000/svg">
<rect width="50" height="50" rx="10" fill="#D9D9D9"/>
<path fill-rule="evenodd" clip-rule="evenodd" d="M25 25C21.2319 25 18.1676 21.9502 18.1676 18.2C18.1676 14.4498 21.2319 11.4 25 11.4C28.7681 11.4 31.8324 14.4498 31.8324 18.2C31.8324 21.9502 28.7681 25 25 25ZM31.419 26.144C34.1298 23.9731 35.7098 20.4626 35.129 16.6189C34.4543 12.1598 30.7273 8.59156 26.2281 8.07136C20.0192 7.35226 14.7514 12.1633 14.7514 18.2C14.7514 21.413 16.2477 24.2757 18.581 26.144C12.8486 28.2877 8.66379 33.3215 8.00788 40.1147C7.91223 41.1194 8.69966 42 9.71427 42C10.5837 42 11.325 41.3472 11.4019 40.4853C12.0868 32.8982 17.9234 28.4 25 28.4C32.0766 28.4 37.9132 32.8982 38.5981 40.4853C38.675 41.3472 39.4163 42 40.2857 42C41.3004 42 42.0878 41.1194 41.9921 40.1147C41.3362 33.3215 37.1514 28.2877 31.419 26.144Z" fill="#FCFCFA"/>
</svg>
