<svg width="27" height="26" viewBox="0 0 27 26" fill="none" xmlns="http://www.w3.org/2000/svg">
<path d="M24.4228 9.17117C21.9805 9.17117 20.982 7.40825 22.1964 5.24592C22.8981 3.9926 22.4798 2.39495 21.2519 1.67877L18.9175 0.315261C17.8516 -0.33206 16.4753 0.0535781 15.8411 1.14163L15.6927 1.40331C14.4783 3.56564 12.4813 3.56564 11.2534 1.40331L11.1049 1.14163C10.4978 0.0535781 9.12144 -0.33206 8.05547 0.315261L5.72114 1.67877C4.49325 2.39495 4.07496 4.00637 4.77661 5.25969C6.0045 7.40825 5.006 9.17117 2.56372 9.17117C1.16042 9.17117 0 10.3419 0 11.788V14.212C0 15.6444 1.14693 16.8288 2.56372 16.8288C5.006 16.8288 6.0045 18.5918 4.77661 20.7541C4.07496 22.0074 4.49325 23.605 5.72114 24.3212L8.05547 25.6847C9.12144 26.3321 10.4978 25.9464 11.1319 24.8584L11.2804 24.5967C12.4948 22.4344 14.4918 22.4344 15.7196 24.5967L15.8681 24.8584C16.5022 25.9464 17.8786 26.3321 18.9445 25.6847L21.2789 24.3212C22.5067 23.605 22.925 21.9936 22.2234 20.7541C20.9955 18.5918 21.994 16.8288 24.4363 16.8288C25.8396 16.8288 27 15.6581 27 14.212V11.788C26.9865 10.3556 25.8396 9.17117 24.4228 9.17117ZM13.4933 17.4762C11.078 17.4762 9.10795 15.4653 9.10795 13C9.10795 10.5347 11.078 8.52384 13.4933 8.52384C15.9085 8.52384 17.8786 10.5347 17.8786 13C17.8786 15.4653 15.9085 17.4762 13.4933 17.4762Z" fill="black"/>
</svg>
